<?xml version="1.0" encoding="UTF-8"?>
<svg width="61px" height="36px" viewBox="0 0 61 36" version="1.1" xmlns="http://www.w3.org/2000/svg" xmlns:xlink="http://www.w3.org/1999/xlink">
    <!-- Generator: Sketch 43.2 (39069) - http://www.bohemiancoding.com/sketch -->
    <title>tv</title>
    <desc>Created with Sketch.</desc>
    <defs></defs>
    <g id="Page-1" stroke="none" stroke-width="1" fill="none" fill-rule="evenodd" opacity="0.44361413">
        <g id="Home" transform="translate(-170.000000, -53.000000)">
            <g id="tv" transform="translate(170.000000, 53.000000)">
                <path d="M20.9530971,13.6865937 C20.4343273,13.7774369 20.0032971,13.8455683 19.6599936,13.8909898 C19.3166901,13.9364114 19.0306081,13.9780472 18.8017391,14.0158986 C18.5728701,14.0537499 18.3821488,14.1143111 18.2295694,14.197584 C18.0769901,14.2808569 17.9282274,14.4019793 17.7832771,14.5609549 C17.6383267,14.7199304 17.4895641,14.9432498 17.3369847,15.2309199 C17.1844054,15.5185899 16.9936841,15.8895273 16.764815,16.3437431 C16.535946,16.8130995 16.2307919,17.4641325 15.8493436,18.2968615 C15.4678952,19.1295906 15.0940814,20.0304385 14.727891,20.9994323 C14.3617006,21.9684261 14.0489176,22.9525457 13.7895327,23.9518206 C13.5301478,24.9510954 13.427397,25.8524202 13.4004573,26.6543913 C13.3546838,28.0170321 14.8575794,28.2895616 15.5289285,28.0170321 C16.2002776,27.7445026 16.9250187,27.3773503 17.7031733,26.9155641 C18.481328,26.453778 19.2823575,25.9200824 20.106286,25.3144613 C20.9302144,24.7088402 22.2103749,23.5089623 22.2103749,23.5089623 C22.2103749,23.5089623 27.9727038,17.605255 28.9472442,16.7177139 L33.4129602,18.5170864 C33.0620277,19.2438318 29.42171,23.767743 28.5121738,24.7193392 C27.6026376,25.6709354 20.2332803,33.3047529 15.8493436,33.952172 C14.9078208,33.952172 9.9537319,34.5003153 7.09900779,30.5862703 C6.68624442,30.0203401 6.64143213,29.7433876 6.34969146,29.1902888 C6.05795079,28.63719 6.03091188,27.9943248 6.03091188,27.313001 C6.03091188,25.4052945 6.32080829,23.4143449 6.90060979,21.3400925 C7.4804113,19.2658401 8.37298707,17.2673204 9.57836389,15.3444733 C9.21217346,15.3898949 8.76588558,15.4580262 8.23948684,15.5488694 C7.7130881,15.6397126 7.15236743,15.7343394 6.55730799,15.8327529 C5.96224855,15.9311663 5.36338361,16.0295783 4.7606952,16.1279917 C4.15800679,16.2264051 3.59347169,16.3096768 3.06707295,16.3778092 C2.54067422,16.4459415 2.07912863,16.4913624 1.68242233,16.5140732 C1.28571604,16.536784 1.01107734,16.5178587 0.858497998,16.4572965 C0.293954426,16.2756102 0.0078724483,16.0674311 0.000243481123,15.8327529 C-0.00738548606,15.5980747 0.164263701,15.3558299 0.515196191,15.1060112 C0.866128681,14.8561924 1.3467464,14.6063775 1.95706378,14.3565588 C2.56738115,14.10674 3.21583364,13.8720654 3.90244068,13.6525277 C4.58904773,13.43299 5.26038677,13.2399512 5.91647795,13.0734054 C6.57256913,12.9068596 7.11421767,12.778167 7.54143983,12.6873239 C8.45691589,12.5056375 9.1663992,12.3542345 9.66991103,12.2331103 C10.1734229,12.1119861 10.5777521,11.960583 10.8829108,11.7788967 C11.1880694,11.5972104 11.4550793,11.3587506 11.6839483,11.0635103 C11.9128173,10.76827 12.2103426,10.3556968 12.576533,9.82577833 C12.7901441,9.52296776 13.0495251,9.11796471 13.3546838,8.61075701 C13.6598424,8.10354931 13.995512,7.55849847 14.3617024,6.97558814 C14.7278928,6.3926778 15.1207787,5.80599113 15.5403719,5.21551053 C15.9599651,4.62502992 16.3833664,4.09511938 16.8105886,3.62576301 C17.2378108,3.15640663 17.6650265,2.77032895 18.0922487,2.46751839 C18.5194709,2.16470782 18.9314289,2.01330481 19.3281352,2.01330481 C20.2283533,2.01330481 21.0408261,2.16470782 21.765578,2.46751839 C22.4903299,2.77032895 23.2036276,3.18668724 23.9054926,3.71660572 C23.0815642,4.86728587 22.2271327,6.04065921 21.3421725,7.23676094 C20.4572123,8.43286267 19.694327,9.68193752 19.0534937,10.9840229 C19.4807159,10.9537419 19.991849,10.9007508 20.5869085,10.8250482 C21.1819679,10.7493456 21.3650613,13.6108911 20.9530971,13.6865937 Z M37.7311894,11.8533551 C38.4025386,11.8533551 39.0128468,11.9593372 39.5621324,12.1713046 C40.1114181,12.383272 40.1596642,12.7352842 40.5792574,13.2046405 C40.9988506,13.6739969 39.9130616,14.5786329 40.2258492,15.328089 C40.5386369,16.0775451 40.8018323,16.7172201 41.0154434,17.7921977 C40.5882212,18.7914725 41.5189552,19.3932966 41.0154434,20.1654636 C40.5119316,20.9376305 40.5386375,21.9255377 40.1114153,22.6295722 C39.6841931,23.3336068 39.3256371,24.0338457 39.0357363,24.73031 C38.7458356,25.4267743 38.6008874,26.1837894 38.6008874,27.0013779 C38.6008874,27.3496101 38.6390316,27.7016221 38.7153213,28.0574245 C38.791611,28.4132269 38.8984149,28.7955195 39.0357363,29.2043138 C39.9054386,29.1134706 40.687396,28.8068795 41.381632,28.2845313 C42.075868,27.762183 42.6938051,27.1035799 43.2354617,26.3087022 C43.7771184,25.5138245 44.2462929,24.6281169 44.6429992,23.6515528 C45.0397054,22.6749887 45.3830038,21.6870841 45.6729046,20.6878092 C45.9628053,19.6885343 45.9246592,20.0355259 46.3938384,17.7921977 C46.7105128,14.5672813 45.5295954,12.8000192 45.5295954,12.3912249 C45.5295954,12.1035549 45.5829974,11.86131 45.6898029,11.6644832 C45.7966085,11.4676563 45.9949586,11.3692443 46.2848594,11.3692443 C46.4832125,11.3692443 46.666305,11.4184503 46.8341423,11.5168638 C47.0019796,11.6152772 47.7403436,12.2999979 47.8929229,12.4211221 C48.0607602,12.5573869 48.3048835,12.7617809 48.6253001,13.0343104 C48.9457167,13.3068399 49.3157161,13.6058609 49.7353093,13.9313823 C50.1549025,14.2569036 50.6126336,14.5899902 51.1085165,14.9306521 C51.6043994,15.271314 52.1155325,15.5816902 52.6419312,15.86179 C53.16833,16.1418897 53.6909064,16.3727793 54.2096762,16.5544657 C54.7284459,16.736152 55.2243214,16.8269938 55.6973173,16.8269938 C56.1092816,16.8269938 56.5097963,16.7664326 56.8988736,16.6453084 C57.287951,16.5241841 57.3062423,16.5506811 57.7563513,16.4295569 C58.2064604,16.3084327 58.6985214,16.2478715 59.2325491,16.2478715 C59.720803,16.2478715 60.132761,16.3424984 60.4684356,16.531755 C60.8041101,16.7210116 60.9719449,17.0503131 60.9719449,17.5196695 C60.9719449,18.0950096 60.8308111,18.6249201 60.5485393,19.109417 C60.2662676,19.5939139 59.8886393,20.0329827 59.4156434,20.4266364 C58.9426474,20.8202901 56.4640276,21.9671769 55.891855,22.0731606 C55.3196825,22.1791443 54.8123638,22.2321354 54.3698837,22.2321354 C54.0494671,22.2321354 53.7443129,22.1791443 53.4544122,22.0731606 C53.1645114,21.9671769 52.8860583,21.8346993 52.6190445,21.6757237 C52.3520306,21.5167482 52.1040929,21.3350646 51.8752239,21.1306674 C51.6463549,20.9262703 51.4403758,20.7256613 51.2572806,20.5288344 C51.0131537,21.4524067 50.7079996,22.4138158 50.3418091,23.4130907 C49.9756187,24.4123655 49.548403,25.3964851 49.0601491,26.3654789 C48.5718952,27.3344727 48.0226178,28.2580311 47.4123004,29.1361817 C46.801983,30.0143324 46.1268296,30.7827026 45.3868197,31.4413156 C44.6468099,32.0999286 43.8457804,32.6260541 42.9837071,33.0197078 C42.1216338,33.4133615 41.202357,33.6101854 40.2258492,33.6101854 C39.340889,33.6101854 38.4025402,33.489063 37.4107744,33.2468146 C36.4190087,33.0045661 35.5073608,32.6374138 34.6758034,32.1453467 C33.8442459,31.6532795 33.1538348,31.0325271 32.6045491,30.283071 C32.0552635,29.5336149 31.7806248,28.6592625 31.7806248,27.6599876 C31.7806248,26.6758533 31.9408307,25.7182292 32.2612473,24.7870867 C32.5816639,23.8559442 32.9898076,22.9437411 33.4856904,22.0504499 C33.9815733,21.1571588 34.515593,20.2790213 35.0877655,19.4160112 C35.6599381,18.5530011 36.1977722,17.6975741 36.701284,16.8497045 L36.6326237,16.4409123 C36.098596,16.4560528 35.6446792,16.4976886 35.2708598,16.565821 C34.8970404,16.6339534 34.6098326,16.8957069 34.274158,17.0622527 C33.9384835,17.2287985 33.5352802,17.3039167 33.1996056,17.5764462 C32.863931,17.8489757 32.4672307,18.1972026 32.0094927,18.6211374 C31.8569133,18.7574022 31.6776353,18.9163753 31.4716532,19.0980617 C31.2656711,19.279748 31.0558776,19.4500764 30.8422665,19.609052 C30.6286554,19.7680275 30.418862,19.9005051 30.2128799,20.0064888 C30.0068978,20.1124725 29.8276197,20.1654636 29.6750404,20.1654636 C29.4614293,20.1654636 29.2478214,20.1313979 29.0342103,20.0632655 C28.8205993,19.9951332 28.6298779,19.9005063 28.4620407,19.779382 C28.2942034,19.6582578 28.1530696,19.5106399 28.0386351,19.3365238 C27.9242006,19.1624077 27.8669842,18.9693689 27.8669842,18.7574015 C27.8669842,18.4243099 28.0233757,18.0230919 28.3361633,17.5537355 C28.648951,17.0843791 29.0647235,16.5961044 29.5834932,16.0888967 C30.102263,15.581689 30.7011279,15.074489 31.380106,14.5672813 C32.0590841,14.0600736 32.764753,13.6058645 33.4971338,13.2046405 C34.2295147,12.8034165 34.9618845,12.4779001 35.6942654,12.2280813 C36.4266462,11.9782626 37.1056141,11.8533551 37.7311894,11.8533551 Z" fill="#FFFFFF"></path>
                <path d="M43.8465056,20.4337625 C43.8465056,30.2458362 37.7094346,35.8466205 30.1385759,35.8466205 C22.5677171,35.8466205 16.4306461,30.2458362 16.4306461,20.4337625 C16.4306461,11.3740575 22.1329874,1.89289439 28.5308962,0.490228821 C28.6177749,0.479078234 28.7054897,0.50325095 28.7745098,0.557364615 C28.8435299,0.611478281 28.8881252,0.691040228 28.8983658,0.778335011 C29.1553758,1.97685676 29.4123859,3.17537851 29.6693959,4.37390027 C29.7251725,4.64060428 29.4200415,4.67188438 29.4200415,4.67188438 C24.6626221,5.36333924 20.3104036,12.7816621 20.3104036,19.8608427 C20.3104036,27.2939824 24.7101963,31.5381982 30.1369354,31.5381982 C35.5636744,31.5381982 39.9634671,27.2956288 39.9634671,19.8608427 C39.9305019,16.1375933 38.8635969,12.497335 36.8826279,9.34908259 C36.4265529,9.93404757 36.0650509,10.5873976 35.8113883,11.2851562 C35.6288111,11.8076371 35.4765374,12.3402905 35.3553323,12.8804413 C35.2969817,13.1955753 35.1209476,13.4764645 34.8631854,13.6657365 C34.4432201,13.955489 34.0117714,13.8204907 33.8788918,13.3364723 C33.7246858,12.7783694 33.6000086,12.212035 33.4769719,11.6457005 C32.7365643,8.22903548 32.0021719,4.81291922 31.2737945,1.39735174 C31.2442657,1.25741445 31.2295013,1.11583083 31.208175,0.974247221 C31.2212989,0.460595041 31.4936201,0.256451226 31.972643,0.463887683 C32.9405318,0.88205324 33.8969372,1.32820625 34.8566235,1.76942031 C37.5492135,3.00635622 40.2412567,4.24548722 42.932753,5.48681332 C43.1167318,5.56730589 43.2925335,5.66544325 43.4577096,5.77985847 C43.6286586,5.89404677 43.7284607,6.08895882 43.7214413,6.29492248 C43.7144219,6.50088614 43.601583,6.6884996 43.4232593,6.79069962 C43.2267411,6.89907653 43.0060639,6.95571633 42.781828,6.95533173 C41.8525857,6.92908899 40.9245443,7.04002889 40.0274462,7.28459595 C42.3503793,11.0184522 43.8465056,15.7812591 43.8465056,20.4337625 Z" id="Shape" fill="#CECECE"></path>
                <path d="M37.8630122,11.7060324 C38.4885875,11.7060324 39.7271309,23.3293102 39.4372302,24.0257745 C39.1473294,24.7222388 38.6985984,26.1147637 38.6985984,26.9323522 C38.6985984,28.270436 40.6706731,28.6498666 41.3649091,28.1275184 C42.0591451,27.6051701 42.9490668,26.7651429 43.4907234,25.9702652 C44.0323801,25.1753874 48.0058949,28.1010182 47.3955775,28.9791688 C46.7852601,29.8573195 46.2590229,30.6757838 45.5190131,31.3343968 C44.7790033,31.9930097 44.4737739,32.2125025 43.2494496,32.9632787 C42.0251254,33.7140549 41.2363133,33.8078668 40.2598055,33.8078668 C39.3748453,33.8078668 38.4675709,33.695421 37.4758052,33.4531726 C36.4840394,33.2109241 35.4906379,32.4804009 34.6590805,31.9883338 C33.827523,31.4962666 33.1371119,30.8755143 32.5878262,30.1260581 C32.0385406,29.376602 31.7639019,28.5022496 31.7639019,27.5029747 C31.7639019,26.5188404 31.9241078,25.5612163 32.2445244,24.6300738 C32.5649411,23.6989313 32.9730847,22.7867282 33.4689675,21.893437 C33.9648504,21.0001459 34.4988701,20.1220084 35.0710426,19.2589983 C35.6432152,18.3959882 35.0710426,17.0276116 34.491398,17.2978124 C33.9117533,17.5680132 33.3221219,19.0425934 32.2445244,19.9261376 C31.166927,20.8096818 27.2900281,26.2593781 26.9299895,26.2593781 C26.5699509,26.2593781 24.056146,22.1601317 24.3689337,21.6907753 C24.5717812,21.3863906 27.0751335,18.6096275 29.0600724,16.5699274 C30.1358772,15.464443 31.1247327,14.5885441 31.3633831,14.4102684 C32.0423612,13.9030607 32.7480301,13.4488516 33.4804109,13.0476276 C34.2127918,12.6464036 34.9451616,12.3208872 35.6775425,12.0710684 C36.4099233,11.8212497 37.2374369,11.7060324 37.8630122,11.7060324 Z" fill="#FFFFFF"></path>
                <path d="M25.171934,12.6841445 C24.3098607,12.8734011 23.4935735,13.0361593 22.7230478,13.1724241 C21.9525221,13.3086888 21.361286,13.4146709 20.9493218,13.4903736 C20.430552,13.5812167 19.9995218,13.6493481 19.6562183,13.6947697 C19.3129148,13.7401913 19.0268328,13.7818271 18.7979638,13.8196784 C18.5690948,13.8575297 18.3783735,13.9180909 18.2257941,14.0013638 C18.0732148,14.0846367 17.9244521,14.2057591 17.7795018,14.3647347 C17.6345514,14.5237102 17.4857888,14.7470297 17.3332094,15.0346997 C17.1806301,15.3223698 16.9899088,15.6933071 16.7610397,16.147523 C16.5321707,16.6168794 16.2270166,17.2679123 15.8455683,18.1006414 C15.4641199,18.9333704 15.0903061,19.8342183 14.7241157,20.8032121 C14.3579253,21.7722059 14.0451423,22.7563255 13.7857574,23.7556004 C13.5263725,24.7548752 13.396682,25.6557232 13.396682,26.4581712 C13.396682,26.8064033 12.570909,17.8976947 12.1828765,12.6841445 C12.0631215,11.075133 12.4863965,9.75453246 12.5727577,9.62955816 C12.7863688,9.32674759 13.0457498,8.92174454 13.3509085,8.41453684 C13.6560671,7.90732914 13.9917367,7.3622783 14.3579271,6.77936797 C14.7241175,6.19645763 15.1170034,5.60977096 15.5365966,5.01929036 C15.9561898,4.42880976 16.3795911,3.89889922 16.8068133,3.42954284 C17.2340355,2.96018646 19.2289961,0.757024141 19.6562183,0.454213576 C20.0834405,0.151403011 20.4953985,0 20.8921048,0 C21.7923229,0 22.6047958,0.151403011 23.3295476,0.454213576 C24.0542995,0.757024141 24.7675973,1.17338242 25.4694622,1.70330091 C24.6455338,2.85398106 22.2233574,5.84443904 21.3383972,7.04054077 C20.453437,8.2366425 19.6905517,9.48571735 19.0497184,10.7878028 C19.4769406,10.7575217 19.9880737,10.7045307 20.5831332,10.628828 C21.1781926,10.5531254 21.8190163,10.4660687 22.5056233,10.3676552 C23.1922303,10.2692418 23.9017137,10.1632597 24.6340945,10.0497057 C25.3664754,9.93615175 26.6615023,9.78853291 26.957577,10.7878028 C27.2536518,11.7870726 26.0340073,12.4948879 25.171934,12.6841445 Z" fill="#FFFFFF"></path>
            </g>
        </g>
    </g>
</svg>