<?xml version="1.0" encoding="utf-8"?>
<!-- Generator: Adobe Illustrator 21.0.2, SVG Export Plug-In . SVG Version: 6.00 Build 0)  -->
<svg version="1.1" id="Laag_1" xmlns="http://www.w3.org/2000/svg" xmlns:xlink="http://www.w3.org/1999/xlink" x="0px" y="0px"
	 viewBox="0 0 53 68" style="enable-background:new 0 0 53 68;" xml:space="preserve">
<style type="text/css">
	.st0{fill:#FFFFFF;}
</style>
<path class="st0" d="M44.9,13.9c1.7-0.5,3.4-0.6,5.1-0.6c0.4,0,0.8-0.1,1.2-0.3c0.7-0.4,0.7-1.4,0.1-1.9c-0.3-0.2-0.6-0.4-1-0.5
	c-5-2.3-10-4.6-15.1-6.9c-1.8-0.8-3.6-1.6-5.4-2.4c-0.9-0.4-1.4,0-1.4,0.9c0,0.3,0.1,0.5,0.1,0.8c1.4,6.3,2.7,12.7,4.1,19
	c0.2,1.1,0.5,2.1,0.7,3.1c0.3,0.9,1.1,1.2,1.8,0.6c0.5-0.4,0.8-0.9,0.9-1.5c0.2-1,0.5-2,0.8-3c0.5-1.3,1.2-2.6,2-3.6
	c3.5,5.4,5.7,12.5,5.7,19.5c0,13.8-8.2,21.7-18.3,21.7c-10.1,0-18.3-7.9-18.3-21.7c0-13.1,8.1-26.9,17-28.2v0c0,0,0.6-0.1,0.5-0.6
	c-0.5-2.2-1-4.5-1.4-6.7c-0.1-0.5-0.4-0.6-0.7-0.5C11.6,3.9,1,21.5,1,38.3c0,18.2,11.4,28.6,25.5,28.6C40.6,66.9,52,56.5,52,38.3
	C52,29.7,49.3,20.8,44.9,13.9z"/>
</svg>
