<?xml version="1.0" encoding="utf-8"?>
<!-- Generator: Adobe Illustrator 21.0.2, SVG Export Plug-In . SVG Version: 6.00 Build 0)  -->
<svg version="1.1" id="Laag_1" xmlns="http://www.w3.org/2000/svg" xmlns:xlink="http://www.w3.org/1999/xlink" x="0px" y="0px"
	 viewBox="0 0 146 57" style="enable-background:new 0 0 146 57;" xml:space="preserve">
<style type="text/css">
	.st0{fill:#FFFFFF;}
	.st1{fill:#9D9D9C;}
	.st2{clip-path:url(#SVGID_2_);fill:#FFFFFF;}
</style>
<path class="st0" d="M144.1,53.3h-6c-4.3,0-6.9-0.1-8.9-1.4c-2.4-1.5-4.1-4.7-4.1-7.8V33.8c0-4.3,0.1-6.9,1.4-8.9
	c1.5-2.4,4.1-4,7.8-4v0h9.9c0.7,0,1.2-0.5,1.2-1.1v-1.4c0-0.6-0.5-1.1-1.2-1.1H134c0,0,0,0,0,0h0c0,0,0,0,0,0c-4.6,0-8.9,2.6-10.6,6
	c-1.2,2.1-1.7,4.9-1.7,10.3c0,0,0,0,0,0v10.6h0c0,0,0,0,0,0v0.6c0,0,0,0.1,0.1,0.1c0.3,4.3,2.7,8.5,5.9,10.1c2,1.2,4.5,1.6,9.2,1.7
	c0.1,0,0.1,0,0.2,0h7.2c0.9,0,1.3-0.4,1.3-1v-1.5C145.4,53.6,144.8,53.3,144.1,53.3"/>
<path class="st0" d="M144.4,34.7h-7c-1.1,0-1.1,1-1.1,1v1.4c0,0.6,0.5,1.1,1.1,1.1h7c0.6,0,1.1-0.5,1.1-1.1v-1.4
	C145.5,35.1,145,34.7,144.4,34.7"/>
<path class="st0" d="M40.9,17.1h-2.4c-0.4,0-0.8,0.2-1,0.6L21.1,51L4.7,17.7c-0.2-0.4-0.5-0.6-1-0.6H1.3c-0.6,0-1.1,0.5-1.1,1.1
	v37.7c0,0.6,0.5,1.1,1.1,1.1h1.5c0.6,0,1.1-0.5,1.1-1.1V24.2l15.9,32.1c0.2,0.4,0.5,0.6,1,0.6h0.9c0.4,0,0.8-0.2,1-0.6l15.8-32.1
	v31.6c0,0.6,0.5,1.1,1.1,1.1h1.5c0.6,0,1.1-0.5,1.1-1.1V18.2C42,17.6,41.5,17.1,40.9,17.1"/>
<path class="st0" d="M114.5,38.1c1.8-2.3,2.7-5.4,2.6-8.3c0-4.6-2.5-9.2-6-10.9c-2.2-1.3-4.9-1.7-10.5-1.7H92
	c-0.6,0-1.1,0.5-1.1,1.1v37.7c0,0.6,0.5,1.1,1.1,1.1h1.5c0.6,0,1.1-0.5,1.1-1.1V20.7h6c4.3,0,6.9,0.1,8.9,1.4c2.4,1.6,4,4.7,4,7.9
	c0,3-0.9,5.2-2.9,7.3c-2.1,2.1-6.3,2.1-8.9,2.1h-1.1c-0.4,0-0.8,0.2-0.9,0.6c-0.2,0.4-0.2,0.8,0.1,1.1l11.1,15.6
	c0.2,0.3,0.5,0.4,0.9,0.4h1.9c0.4,0,0.8-0.2,0.9-0.6c0.2-0.4,0.2-0.8-0.1-1.1l-9-12.6C109,42.4,111.9,41.6,114.5,38.1"/>
<path class="st1" d="M80.8,22.5c-3.7-3.7-8.8-5.2-14.2-5.7c-1.1-0.1-1.1,0.5-1.1,0.5v2.2c0,0.7,1.1,0.7,1.1,0.7
	c9.4,0,16.6,7.2,16.6,16.7c0,9.5-7.1,16.7-16.6,16.7c-9.3,0-16.6-7.3-16.6-16.6v0h0c0-0.7-0.3-0.7-0.8-0.7h-2c-0.9,0-0.7,1-0.7,1h0
	c0.1,5.5,2.1,10.5,5.9,14.1c3.7,3.7,8.8,5.7,14.2,5.7s10.5-2,14.2-5.7c3.8-3.7,5.9-8.8,5.9-14.4S84.6,26.2,80.8,22.5"/>
<path class="st0" d="M24.8,11.4c-2.7,0-4.8-2.2-4.8-4.9c0-2.8,2-4.9,4.8-4.9c2.7,0,4.8,2.1,4.8,4.9C29.5,9.3,27.5,11.4,24.8,11.4
	 M24.8,0.5c-3.3,0-5.8,2.6-5.8,6c0,3.4,2.6,6,5.8,6c3.3,0,5.8-2.6,5.8-6C30.6,3.1,28,0.5,24.8,0.5"/>
<path class="st0" d="M24.8,12.6c-3.4,0-6-2.7-6-6.1c0-3.4,2.6-6.1,6-6.1s6,2.7,6,6.1C30.8,9.9,28.1,12.6,24.8,12.6 M24.8,0.6
	c-3.2,0-5.7,2.6-5.7,5.8c0,3.3,2.5,5.8,5.7,5.8s5.7-2.6,5.7-5.8C30.5,3.2,28,0.6,24.8,0.6z M24.8,11.5c-2.8,0-4.9-2.2-4.9-5.1
	c0-2.9,2.1-5.1,4.9-5.1c2.8,0,4.9,2.2,4.9,5.1C29.7,9.3,27.6,11.5,24.8,11.5z M24.8,1.7c-2.6,0-4.6,2.1-4.6,4.8c0,2.7,2,4.8,4.6,4.8
	c2.6,0,4.6-2.1,4.6-4.8C29.4,3.7,27.4,1.7,24.8,1.7z"/>
<g>
	<defs>
		<rect id="SVGID_1_" x="0.1" y="0.3" width="145.4" height="56.7"/>
	</defs>
	<clipPath id="SVGID_2_">
		<use xlink:href="#SVGID_1_"  style="overflow:visible;"/>
	</clipPath>
	<path class="st2" d="M6.7,0.7H0.5C0.3,0.7,0.2,0.8,0.2,1v0.4c0,0.2,0.1,0.3,0.3,0.3H3v10.2c0,0.2,0.1,0.3,0.3,0.3h0.4
		c0.2,0,0.3-0.1,0.3-0.3V1.7h2.6C6.9,1.7,7,1.6,7,1.4V1C7,0.8,6.9,0.7,6.7,0.7"/>
	<path class="st2" d="M3.8,12.4H3.4c-0.3,0-0.5-0.2-0.5-0.5v-10H0.5C0.2,1.9,0,1.6,0,1.4V1c0-0.3,0.2-0.5,0.5-0.5h6.2
		c0.3,0,0.5,0.2,0.5,0.5v0.4c0,0.3-0.2,0.5-0.5,0.5H4.3v10C4.3,12.2,4.1,12.4,3.8,12.4 M0.5,0.8C0.4,0.8,0.3,0.9,0.3,1v0.4
		c0,0.1,0.1,0.2,0.2,0.2h2.7v10.4c0,0.1,0.1,0.2,0.2,0.2h0.4C3.9,12.1,4,12,4,11.9V1.5h2.7c0.1,0,0.2-0.1,0.2-0.2V1
		c0-0.1-0.1-0.2-0.2-0.2H0.5z"/>
</g>
<path class="st0" d="M16.1,0.7h-0.4c-0.2,0-0.3,0.1-0.3,0.3v4.9h-5.3V1c0-0.2-0.1-0.3-0.3-0.3H9.3C9.1,0.7,9,0.8,9,1v10.9
	c0,0.2,0.1,0.3,0.3,0.3h0.4c0.2,0,0.3-0.1,0.3-0.3v-5h5.3v5c0,0.2,0.1,0.3,0.3,0.3h0.4c0.2,0,0.3-0.1,0.3-0.3V1
	C16.4,0.8,16.3,0.7,16.1,0.7"/>
<path class="st0" d="M16.1,12.4h-0.4c-0.3,0-0.5-0.2-0.5-0.5V7.1h-5v4.8c0,0.3-0.2,0.5-0.5,0.5H9.3c-0.3,0-0.5-0.2-0.5-0.5V1
	c0-0.3,0.2-0.5,0.5-0.5h0.4c0.3,0,0.5,0.2,0.5,0.5v4.8h5V1c0-0.3,0.2-0.5,0.5-0.5h0.4c0.3,0,0.5,0.2,0.5,0.5v10.9
	C16.6,12.2,16.4,12.4,16.1,12.4 M9.9,6.8h5.6v5.1c0,0.1,0.1,0.2,0.2,0.2h0.4c0.1,0,0.2-0.1,0.2-0.2V1c0-0.1-0.1-0.2-0.2-0.2h-0.4
	c-0.1,0-0.2,0.1-0.2,0.2V6H9.9V1c0-0.1-0.1-0.2-0.2-0.2H9.3C9.2,0.8,9.1,0.9,9.1,1v10.9c0,0.1,0.1,0.2,0.2,0.2h0.4
	c0.1,0,0.2-0.1,0.2-0.2V6.8z"/>
<path class="st0" d="M62.8,5.8l-0.1,0c-1.5-0.4-2.6-0.8-2.6-2.2c0-1.2,0.9-2.1,2.1-2.1c1.1,0,1.8,0.6,2,1.9c0,0.2,0.2,0.3,0.3,0.3
	H65c0.1,0,0.2,0,0.2-0.1c0.1-0.1,0.1-0.2,0.1-0.3c-0.3-2.1-1.8-2.8-3.1-2.8c-0.9,0-1.8,0.3-2.4,0.9C59.3,2,59,2.8,59,3.6
	c0,2.3,2,2.8,3,3.1l0.1,0c1,0.3,2.4,0.7,2.4,2.4c0,1.4-1.2,2.3-2.4,2.3c-0.3,0-2-0.1-2.3-2.3c0-0.2-0.2-0.3-0.3-0.3h-0.4
	c-0.1,0-0.2,0-0.2,0.1c-0.1,0.1-0.1,0.2-0.1,0.2c0.1,2.1,1.8,3.3,3.4,3.3c1.6,0,3.4-1.3,3.4-3.4C65.6,6.6,63.5,6,62.8,5.8"/>
<path class="st0" d="M62.2,12.6c-1.6,0-3.4-1.2-3.6-3.4c0-0.1,0-0.3,0.1-0.4c0.1-0.1,0.2-0.2,0.3-0.2h0.4c0.2,0,0.4,0.2,0.5,0.4
	c0.2,2,1.8,2.1,2.2,2.1c1.1,0,2.2-0.8,2.2-2.1c0-1.6-1.3-1.9-2.3-2.2l-0.1,0c-1-0.3-3.1-0.8-3.1-3.2c0-0.9,0.3-1.7,0.9-2.3
	c0.6-0.6,1.5-1,2.5-1c1.3,0,2.9,0.8,3.2,3c0,0.1,0,0.3-0.1,0.4c-0.1,0.1-0.2,0.2-0.4,0.2h-0.4c-0.2,0-0.4-0.2-0.5-0.4
	c-0.2-1.2-0.8-1.7-1.9-1.7c-1.1,0-2,0.8-2,1.9c0,1.3,1,1.7,2.5,2.1l0.1,0c0.7,0.2,2.9,0.8,2.9,3.4C65.8,11.2,63.9,12.6,62.2,12.6
	 M59.1,9C59.1,9,59,9,59,9c0,0,0,0.1,0,0.1c0.1,2,1.7,3.1,3.2,3.1c1.6,0,3.3-1.2,3.3-3.2c0-2.4-2-2.9-2.6-3.1l-0.1,0
	c-1.6-0.4-2.7-0.8-2.7-2.4c0-1.3,1-2.2,2.3-2.2c1.2,0,1.9,0.7,2.2,2c0,0.1,0.1,0.1,0.2,0.1H65c0,0,0.1,0,0.1-0.1c0,0,0-0.1,0-0.1
	c-0.3-2-1.7-2.7-2.9-2.7c-0.9,0-1.7,0.3-2.3,0.9c-0.5,0.5-0.8,1.3-0.8,2.1c0,2.2,1.9,2.7,2.9,2.9l0.1,0c1,0.3,2.5,0.7,2.5,2.5
	c0,1.5-1.3,2.4-2.5,2.4c-0.4,0-2.2-0.1-2.5-2.4C59.7,9,59.6,9,59.6,9H59.1z"/>
<path class="st0" d="M44.6,0.7h-0.7c-0.1,0-0.2,0.1-0.3,0.2L39,10.4l-4.6-9.6c-0.1-0.1-0.2-0.2-0.3-0.2h-0.7c-0.2,0-0.3,0.1-0.3,0.3
	v10.9c0,0.2,0.1,0.3,0.3,0.3h0.4c0.2,0,0.3-0.1,0.3-0.3V2.8l4.4,9.2c0.1,0.1,0.2,0.2,0.3,0.2h0.2c0.1,0,0.2-0.1,0.3-0.2l4.4-9.2v9.1
	c0,0.2,0.1,0.3,0.3,0.3h0.4c0.2,0,0.3-0.1,0.3-0.3V1C44.9,0.8,44.8,0.7,44.6,0.7"/>
<path class="st0" d="M44.6,12.4h-0.4c-0.3,0-0.5-0.2-0.5-0.5V3.5l-4.1,8.6c-0.1,0.2-0.2,0.3-0.4,0.3h-0.2c-0.2,0-0.3-0.1-0.4-0.3
	l-4.1-8.6v8.4c0,0.3-0.2,0.5-0.5,0.5h-0.4c-0.3,0-0.5-0.2-0.5-0.5V1c0-0.3,0.2-0.5,0.5-0.5h0.7c0.2,0,0.3,0.1,0.4,0.3l4.5,9.3
	l4.5-9.3c0.1-0.2,0.2-0.3,0.4-0.3h0.7c0.3,0,0.5,0.2,0.5,0.5v10.9C45.1,12.2,44.9,12.4,44.6,12.4 M44,2.2v9.7c0,0.1,0.1,0.2,0.2,0.2
	h0.4c0.1,0,0.2-0.1,0.2-0.2V1c0-0.1-0.1-0.2-0.2-0.2h-0.7c-0.1,0-0.1,0-0.1,0.1L39,10.8l-4.8-9.9c0-0.1-0.1-0.1-0.1-0.1h-0.7
	c-0.1,0-0.2,0.1-0.2,0.2v10.9c0,0.1,0.1,0.2,0.2,0.2h0.4c0.1,0,0.2-0.1,0.2-0.2V2.2l4.7,9.8c0,0.1,0.1,0.1,0.2,0.1h0.2
	c0.1,0,0.1,0,0.2-0.1L44,2.2z"/>
<path class="st0" d="M50,7.4l2.1-5.1l2.1,5.1H50 M52.7,0.9c0-0.1-0.2-0.2-0.3-0.2h-0.6c-0.1,0-0.2,0.1-0.3,0.2L47,11.8
	c0,0.1,0,0.2,0,0.3c0.1,0.1,0.2,0.1,0.3,0.1h0.5c0.1,0,0.2-0.1,0.3-0.2l1.5-3.6h5.1l1.5,3.6c0,0.1,0.2,0.2,0.3,0.2h0.5
	c0.1,0,0.2-0.1,0.3-0.1c0.1-0.1,0.1-0.2,0-0.3L52.7,0.9z"/>
<path class="st0" d="M56.9,12.4h-0.5c-0.2,0-0.4-0.1-0.4-0.3l-1.5-3.5h-4.9l-1.5,3.5c-0.1,0.2-0.2,0.3-0.4,0.3h-0.5
	c-0.2,0-0.3-0.1-0.4-0.2c-0.1-0.1-0.1-0.3,0-0.4l4.6-10.9c0.1-0.2,0.2-0.3,0.4-0.3h0.6c0.2,0,0.4,0.1,0.4,0.3l4.6,10.9
	c0.1,0.1,0,0.3,0,0.4C57.2,12.3,57.1,12.4,56.9,12.4 M49.4,8.3h5.3l1.6,3.7c0,0.1,0.1,0.1,0.2,0.1h0.5c0.1,0,0.1,0,0.1-0.1
	c0,0,0-0.1,0-0.2L52.5,0.9c0-0.1-0.1-0.1-0.2-0.1h-0.6c-0.1,0-0.1,0-0.2,0.1l-4.6,10.9c0,0.1,0,0.1,0,0.2c0,0,0.1,0.1,0.1,0.1h0.5
	c0.1,0,0.1,0,0.2-0.1L49.4,8.3z M54.5,7.5h-4.7l2.3-5.7L54.5,7.5z M50.2,7.2H54l-1.9-4.6L50.2,7.2z"/>
</svg>
