<?xml version="1.0" encoding="utf-8"?>
<!-- Generator: Adobe Illustrator 21.0.2, SVG Export Plug-In . SVG Version: 6.00 Build 0)  -->
<svg version="1.1" id="Laag_1" xmlns="http://www.w3.org/2000/svg" xmlns:xlink="http://www.w3.org/1999/xlink" x="0px" y="0px"
	 viewBox="0 0 516 357" style="enable-background:new 0 0 516 357;" xml:space="preserve">
<style type="text/css">
	.st0{fill:#FFFFFF;}
</style>
<g>
	<path class="st0" d="M507,161.7L354.7,9.3C345.4,0,330.3,0,321,9.3c-9.3,9.3-9.3,24.4,0,33.7l111.7,111.7H25.8
		C12.7,154.7,2,165.4,2,178.5c0,13.1,10.7,23.8,23.8,23.8h406.9L321,314c-9.3,9.3-9.3,24.4,0,33.7c4.6,4.6,10.7,7,16.8,7
		c6.1,0,12.2-2.3,16.8-7L507,195.3C516.3,186,516.3,171,507,161.7z"/>
</g>
</svg>
