<?xml version="1.0" encoding="utf-8"?>
<!-- Generator: Adobe Illustrator 21.0.2, SVG Export Plug-In . SVG Version: 6.00 Build 0)  -->
<svg version="1.1" id="Laag_1" xmlns="http://www.w3.org/2000/svg" xmlns:xlink="http://www.w3.org/1999/xlink" x="0px" y="0px"
	 viewBox="0 0 516 357" style="enable-background:new 0 0 516 357;" xml:space="preserve">
<style type="text/css">
	.st0{fill:#FFFFFF;}
</style>
<g>
	<path class="st0" d="M9,195.3l152.4,152.4c4.6,4.6,10.7,7,16.8,7s12.2-2.3,16.8-7c9.3-9.3,9.3-24.4,0-33.7L83.3,202.3h406.9
		c13.1,0,23.8-10.7,23.8-23.8c0-13.1-10.7-23.8-23.8-23.8H83.3L195,43c9.3-9.3,9.3-24.4,0-33.7c-9.3-9.3-24.4-9.3-33.7,0L9,161.7
		C-0.3,171-0.3,186,9,195.3z"/>
</g>
</svg>
